<svg width="18" height="18" viewBox="0 0 18 18" fill="none" xmlns="http://www.w3.org/2000/svg">
<path d="M13.4499 9.49635L2.81306 14.812C2.70096 14.8694 2.61137 14.9628 2.55865 15.0772C2.50594 15.1916 2.49314 15.3204 2.52231 15.4429C2.55149 15.5654 2.62095 15.6746 2.71956 15.753C2.81817 15.8314 2.94023 15.8743 3.06618 15.8751C3.15448 15.8767 3.24169 15.8553 3.31931 15.8132L13.9506 10.4976C14.4084 10.2605 14.7922 9.90218 15.0601 9.46173C15.328 9.02127 15.4698 8.51564 15.4698 8.0001C15.4698 7.48455 15.328 6.97893 15.0601 6.53847C14.7922 6.09801 14.4084 5.73967 13.9506 5.5026L3.31931 0.186972C3.25303 0.147091 3.17924 0.121308 3.10255 0.111235C3.02586 0.101162 2.94791 0.107015 2.87358 0.128428C2.79925 0.149841 2.73014 0.186354 2.67056 0.235685C2.61098 0.285016 2.56222 0.346105 2.52731 0.415134C2.49241 0.484163 2.47212 0.559649 2.46771 0.636875C2.4633 0.7141 2.47487 0.791406 2.50168 0.863959C2.5285 0.936513 2.56999 1.00276 2.62357 1.05855C2.67715 1.11434 2.74165 1.15849 2.81306 1.18822L13.4443 6.50385C13.7178 6.6465 13.947 6.86141 14.107 7.1252C14.2669 7.389 14.3515 7.6916 14.3515 8.0001C14.3515 8.3086 14.2669 8.61119 14.107 8.87499C13.947 9.13879 13.7178 9.35369 13.4443 9.49635H13.4499Z" fill="#4D4477"/>
</svg>
