<svg width="12" height="20" viewBox="0 0 12 20" fill="none" xmlns="http://www.w3.org/2000/svg">
<path d="M1.86402 11.9095L11.6804 18.6515C11.7839 18.7243 11.8666 18.8428 11.9152 18.9879C11.9639 19.133 11.9757 19.2963 11.9488 19.4517C11.9218 19.6071 11.8577 19.7456 11.7667 19.845C11.6757 19.9444 11.5631 19.999 11.4468 19.9999C11.3654 20.0019 11.2849 19.9748 11.2132 19.9214L1.40201 13.1794C0.97952 12.8788 0.62529 12.4243 0.378032 11.8656C0.130774 11.307 0 10.6657 0 10.0118C0 9.3579 0.130774 8.71659 0.378032 8.15795C0.62529 7.5993 0.97952 7.1448 1.40201 6.84412L11.2132 0.102134C11.2744 0.0515521 11.3425 0.0188514 11.4133 0.00607535C11.4841 -0.00670068 11.556 0.000722657 11.6246 0.0278814C11.6932 0.0550402 11.757 0.101351 11.812 0.163919C11.8669 0.226487 11.9119 0.303968 11.9441 0.39152C11.9764 0.479072 11.9951 0.574814 11.9992 0.672761C12.0032 0.770709 11.9926 0.868758 11.9678 0.96078C11.9431 1.0528 11.9048 1.13682 11.8553 1.20759C11.8059 1.27835 11.7463 1.33434 11.6804 1.37205L1.86921 8.11404C1.61678 8.29497 1.40526 8.56754 1.25765 8.90212C1.11005 9.23671 1.032 9.6205 1.032 10.0118C1.032 10.4031 1.11005 10.7868 1.25765 11.1214C1.40526 11.456 1.61678 11.7286 1.86921 11.9095H1.86402Z" fill="#4D4477"/>
</svg>
